<?xml version="1.0" encoding="utf-8"?>
<!-- Generator: Adobe Illustrator 24.0.0, SVG Export Plug-In . SVG Version: 6.00 Build 0)  -->
<svg version="1.1" id="Layer_1" xmlns="http://www.w3.org/2000/svg" xmlns:xlink="http://www.w3.org/1999/xlink" x="0px" y="0px"
	 viewBox="0 0 26 26" style="enable-background:new 0 0 26 26;" xml:space="preserve">
<style type="text/css">
	.st0{fill:#FFFFFF;}
</style>
<g>
	<path class="st0" d="M23.2,4.9C20.8,2,17.1,0.1,13,0.1c-4.8,0-8.9,2.6-11.2,6.4c1.3,0.1,4,0.3,6.6,1.3C11.9,9,19.9,10.9,23.2,4.9z"
		/>
	<path class="st0" d="M9,12.4c5.5,2.4,11.7,4.9,17-0.5c-0.1-1.6-0.6-3.2-1.3-4.5c-4.1,5.4-11.5,5.1-16.4,2.5C4.9,8,2.4,7.6,1.2,7.6
		c-0.4,0.8-0.7,1.6-0.9,2.5C1.8,10.2,5,10.6,9,12.4z"/>
	<path class="st0" d="M9.4,14.8c-4.2-2.6-7.8-3.1-9.3-3.2c0,0.3-0.1,0.7-0.1,1c1.2,0.3,4.1,1.5,9.3,5.3c6.2,4.6,11.1,4.6,13.9,3.2
		c1.2-1.6,2.1-3.4,2.6-5.5C20.4,19.2,14.8,18.1,9.4,14.8z"/>
	<path class="st0" d="M0.1,14.9C1,21.2,6.5,26.1,13,26.1c2.2,0,4.3-0.5,6.1-1.5c-5.7-0.3-9.9-3.1-13.6-6C2.9,16.5,1.1,15.4,0.1,14.9
		z"/>
</g>
</svg>
