<?xml version="1.0" encoding="utf-8"?>
<!-- Generator: Adobe Illustrator 24.0.0, SVG Export Plug-In . SVG Version: 6.00 Build 0)  -->
<svg version="1.1" id="Layer_1" xmlns="http://www.w3.org/2000/svg" xmlns:xlink="http://www.w3.org/1999/xlink" x="0px" y="0px"
	 viewBox="0 0 26 26" style="enable-background:new 0 0 26 26;" xml:space="preserve">
<g>
	<path d="M23.2,4.9C20.9,1.9,17.2,0,13.1,0C8.3,0,4.1,2.5,1.9,6.4c1.3,0.1,4,0.3,6.6,1.3C11.9,8.9,19.9,10.8,23.2,4.9z"/>
	<path d="M9.1,12.3c5.5,2.4,11.7,5,17-0.5c-0.1-1.6-0.6-3.2-1.3-4.6c-4.1,5.4-11.5,5.1-16.4,2.5C4.9,7.9,2.5,7.6,1.2,7.6
		c-0.4,0.8-0.7,1.7-0.9,2.5C1.9,10.2,5.1,10.6,9.1,12.3z"/>
	<path d="M9.4,14.8c-4.2-2.6-7.8-3.1-9.3-3.2c0,0.3-0.1,0.7-0.1,1c1.2,0.3,4.1,1.5,9.3,5.3c6.2,4.6,11.1,4.7,13.9,3.2
		c1.2-1.6,2.1-3.4,2.6-5.5C20.4,19.1,14.8,18.1,9.4,14.8z"/>
	<path d="M0.2,14.9C1.1,21.2,6.5,26,13.1,26c2.2,0,4.3-0.5,6.1-1.5c-5.7-0.3-9.9-3.2-13.6-6C2.9,16.4,1.1,15.4,0.2,14.9z"/>
</g>
</svg>
